<svg id="SvgjsSvg1001" width="288" height="288" xmlns="http://www.w3.org/2000/svg" version="1.1" xmlns:xlink="http://www.w3.org/1999/xlink" xmlns:svgjs="http://svgjs.com/svgjs"><defs id="SvgjsDefs1002"></defs><g id="SvgjsG1008"><svg xmlns="http://www.w3.org/2000/svg" data-name="Layer 1" viewBox="0 0 24 24" width="288" height="288"><path d="M17.71,11.29l-5-5a1,1,0,0,0-.33-.21,1,1,0,0,0-.76,0,1,1,0,0,0-.33.21l-5,5a1,1,0,0,0,1.42,1.42L11,9.41V17a1,1,0,0,0,2,0V9.41l3.29,3.3a1,1,0,0,0,1.42,0A1,1,0,0,0,17.71,11.29Z" fill="#ffffff" class="color000 svgShape"></path></svg></g></svg>